Coordinates
version=1
nRows=4
nColumns=63
inDegrees=yes

Units are S.I. units (second, meters, Newtons, ...)
If the header above contains a line with 'inDegrees', this indicates whether rotational values are in degrees (yes) or radians (no).

endheader
time	pelvis_tilt	pelvis_list	pelvis_rotation	pelvis_tx	pelvis_ty	pelvis_tz	hip_flexion_r	hip_adduction_r	hip_rotation_r	knee_angle_r	knee_angle_r_beta	ankle_angle_r	subtalar_angle_r	mtp_angle_r	hip_flexion_l	hip_adduction_l	hip_rotation_l	knee_angle_l	knee_angle_l_beta	ankle_angle_l	subtalar_angle_l	mtp_angle_l	L5_S1_Flex_Ext	L5_S1_Lat_Bending	L5_S1_axial_rotation	L4_L5_Flex_Ext	L4_L5_Lat_Bending	L4_L5_axial_rotation	L3_L4_Flex_Ext	L3_L4_Lat_Bending	L3_L4_axial_rotation	L2_L3_Flex_Ext	L2_L3_Lat_Bending	L2_L3_axial_rotation	L1_L2_Flex_Ext	L1_L2_Lat_Bending	L1_L2_axial_rotation	L1_T12_Flex_Ext	L1_T12_Lat_Bending	L1_T12_axial_rotation	Abs_r3	Abs_r2	Abs_r1	Abs_t1	Abs_t2	neck_flexion	neck_bending	neck_rotation	arm_flex_r	arm_add_r	arm_rot_r	elbow_flex_r	pro_sup_r	wrist_flex_r	wrist_dev_r	arm_flex_l	arm_add_l	arm_rot_l	elbow_flex_l	pro_sup_l	wrist_flex_l	wrist_dev_l
      2.09302326	     -0.22919187	    -11.10037339	    102.14849431	      0.21148648	      0.35743216	      0.70472731	      4.41184143	     -3.05535285	    -17.66355653	     15.29807222	      0.26700173	     33.94732852	     17.40127494	      0.00000000	      3.61538313	      0.38964453	    -14.41525199	      8.80811830	      0.15373067	     36.91127057	     13.31332116	      0.00000000	      0.08361241	      0.05622139	      1.62987862	      0.15527661	      0.07477445	      1.73174604	      0.13736683	      0.13669669	      1.73174604	      0.09556062	      0.13669669	      1.42614380	      0.07764248	      0.11464666	      1.32427638	      0.04777613	      0.08708693	      1.22240897	      0.59723509	      0.63598760	      9.06489594	      0.00000000	      0.00000000	     13.32794467	     -2.02641890	    -10.27837230	     72.01564450	      5.80165922	     48.50181127	    111.33336140	     89.73957611	     22.22724342	     33.47904759	     69.66247223	      2.40528815	     26.69199294	     76.81997522	     79.47180503	    -31.78878529	    -20.38843958
      2.11627907	     -0.55790225	    -11.06519523	    102.44435998	      0.21152504	      0.35800625	      0.70396318	      4.36797057	     -3.38386208	    -17.84071292	     15.48327994	      0.27023421	     33.93393639	     17.21071029	      0.00000000	      3.52609028	      0.67249581	    -14.38298582	      8.73334344	      0.15242560	     37.29476081	     13.94817988	      0.00000000	      0.07386793	      0.00072632	      1.56175601	      0.13718013	      0.00096600	      1.65936576	      0.12135762	      0.00176597	      1.65936576	      0.08442366	      0.00176597	      1.36653651	      0.06859376	      0.00148111	      1.26892676	      0.04220813	      0.00112507	      1.17131701	      0.52763123	      0.00821625	      8.68601841	      0.00000000	      0.00000000	     12.34182458	     -1.52044831	    -11.05777016	     69.24827623	      3.77970700	     43.77036106	    108.78097582	     89.64590733	     21.40013268	     28.20296850	     69.03046478	      1.69423360	     28.75086015	     79.00385368	     81.75245529	    -31.81023596	    -21.04092109
      2.13953488	     -0.77187431	    -10.99112665	    102.77611594	      0.21139934	      0.35868130	      0.70346362	      4.30583818	     -3.60101759	    -18.13177153	     15.63743416	      0.27292471	     33.79209226	     17.08160249	      0.00000000	      3.41829347	      0.83971127	    -14.41607039	      8.68705533	      0.15161772	     37.47134287	     14.62713822	      0.00000000	      0.07607420	     -0.03349547	      1.37529549	      0.14127739	     -0.04454897	      1.46125146	      0.12498230	     -0.08144088	      1.46125146	      0.08694520	     -0.08144088	      1.20338355	      0.07064250	     -0.06830396	      1.11742759	      0.04346880	     -0.05188448	      1.03147162	      0.54339038	     -0.37890742	      7.64898093	      0.00000000	      0.00000000	     11.32748213	     -0.87910971	    -10.80986203	     67.92225853	      2.80006872	     42.77317425	    106.96677370	     89.51718868	     12.37742479	     20.93794457	     68.59746704	      0.44158942	     30.54584327	     81.10991992	     86.19963424	    -32.31503129	    -20.37388262
      2.16279070	     -0.67703784	    -10.81624622	    102.93788705	      0.21076910	      0.35921592	      0.70322668	      4.19747804	     -3.50709158	    -18.26680244	     15.68212485	      0.27370471	     33.58182687	     17.02304865	      0.00000000	      3.27150780	      0.71763868	    -14.39043254	      8.75489214	      0.15280169	     37.49736576	     14.73648686	      0.00000000	      0.07744531	     -0.00708838	      1.22234054	      0.14382368	     -0.00942754	      1.29873683	      0.12723490	     -0.01723468	      1.29873683	      0.08851224	     -0.01723468	      1.06954797	      0.07191571	     -0.01445462	      0.99315169	      0.04425225	     -0.01097989	      0.91675541	      0.55318410	     -0.08018513	      6.79829139	      0.00000000	      0.00000000	     10.63652614	     -0.82215884	     -9.75863425	     67.94698032	      3.02748674	     44.45901976	    108.22185805	     89.46428403	      4.97803247	     22.21364728	     68.47474477	     -0.71521823	     32.40322077	     82.67198376	     87.74777046	    -32.92461730	    -20.04192127
